<svg xmlns="http://www.w3.org/2000/svg" viewBox="0 0 500 500"><g id="freepik--Floor--inject-2"><path id="freepik--floor--inject-2" d="M89.05,437.1c87.26,46,228.74,46,316,0s87.26-120.62,0-166.63-228.74-46-316,0S1.78,391.09,89.05,437.1Z" style="fill:#f5f5f5"></path></g><g id="freepik--Shadow--inject-2"><polygon points="163.51 357.3 166.13 354.18 86.76 308.35 81.38 311.45 109.57 327.73 82.5 343.36 54.07 326.94 48.7 330.05 129.94 376.95 130.79 375.93 131.22 376.17 162.38 358.22 162.63 358.36 163.08 357.81 163.75 357.43 163.51 357.3" style="fill:#e0e0e0"></polygon><ellipse id="freepik--shadow--inject-2" cx="357.41" cy="381.96" rx="44.22" ry="21.07" style="fill:#e0e0e0"></ellipse><ellipse id="freepik--shadow--inject-2" cx="223.83" cy="425.39" rx="44.22" ry="21.07" style="fill:#e0e0e0"></ellipse><path id="freepik--shadow--inject-2" d="M392.67,408.28c8.58,5,22.49,5,31.07,0s8.58-13,0-17.94-22.49-4.95-31.07,0S384.09,403.33,392.67,408.28Z" style="fill:#e0e0e0"></path><ellipse id="freepik--shadow--inject-2" cx="89.84" cy="404.57" rx="21.97" ry="12.68" style="fill:#e0e0e0"></ellipse></g><g id="freepik--Ladder--inject-2"><path d="M131,189.48,86.48,310.75v0a1.59,1.59,0,0,1-.78.84,4.47,4.47,0,0,1-4.06,0,1.53,1.53,0,0,1-.83-1,.91.91,0,0,1,0-.33,2.77,2.77,0,0,1,.16-.83L125.64,187.5a2.88,2.88,0,1,1,5.4,2Z" style="fill:#37474f"></path><line x1="71.48" y1="272.92" x2="116.16" y2="298.72" style="fill:none;stroke:#37474f;stroke-miterlimit:10;stroke-width:6px"></line><line x1="103.97" y1="254.16" x2="148.66" y2="279.96" style="fill:none;stroke:#37474f;stroke-miterlimit:10;stroke-width:6px"></line><path d="M94.68,181.15l23.83-13.76a6.29,6.29,0,0,1,9.63,4.28L167.7,356.75a1.65,1.65,0,0,1,.05.38,1.79,1.79,0,0,1,0,.4,1.54,1.54,0,0,1-.83,1,4.47,4.47,0,0,1-4.06,0,1.72,1.72,0,0,1-.79-.86,1.36,1.36,0,0,1,0-.17L122.52,172.87a1.05,1.05,0,0,0-.37-.7,1,1,0,0,0-.76.2L97.55,186.13" style="fill:#455a64"></path><path d="M133.57,358l-14.51-8.38a1.91,1.91,0,0,1-.87-1.5v-.34a1.89,1.89,0,0,1,.87-1.5l34.82-20.11a1.91,1.91,0,0,1,1.74,0l14.51,8.38a1.92,1.92,0,0,1,.87,1.5v.35a1.92,1.92,0,0,1-.87,1.5L135.31,358A1.91,1.91,0,0,1,133.57,358Z" style="fill:#BA68C8"></path><path d="M118.45,346.94a1.75,1.75,0,0,0-.26.86v.34a1.91,1.91,0,0,0,.87,1.5L133.57,358a1.78,1.78,0,0,0,.87.21v-2.05Z" style="opacity:0.1"></path><path d="M134.44,356.18v2.05a1.78,1.78,0,0,0,.87-.21l17.41-10,17.41-10.05a1.92,1.92,0,0,0,.87-1.5v-.35a1.72,1.72,0,0,0-.26-.85Z" style="opacity:0.15"></path><path d="M127.28,328.59l-14.52-8.38a1.94,1.94,0,0,1-.86-1.5v-.35a1.94,1.94,0,0,1,.86-1.5l34.83-20.1a1.89,1.89,0,0,1,1.73,0l14.52,8.38a1.91,1.91,0,0,1,.86,1.5V307a1.88,1.88,0,0,1-.86,1.5L129,328.59A1.89,1.89,0,0,1,127.28,328.59Z" style="fill:#BA68C8"></path><path d="M112.15,317.51a1.73,1.73,0,0,0-.25.85v.35a1.94,1.94,0,0,0,.86,1.5l14.52,8.38a1.75,1.75,0,0,0,.87.21v-2.05Z" style="opacity:0.1"></path><path d="M128.15,326.75v2.05a1.74,1.74,0,0,0,.86-.21l17.42-10,17.41-10.06a1.88,1.88,0,0,0,.86-1.5v-.34a1.7,1.7,0,0,0-.25-.85Z" style="opacity:0.15"></path><path d="M121,299.16l-14.52-8.38a1.92,1.92,0,0,1-.87-1.5v-.35a1.92,1.92,0,0,1,.87-1.5l34.83-20.1a1.89,1.89,0,0,1,1.73,0l14.51,8.38a1.91,1.91,0,0,1,.87,1.5v.34a1.89,1.89,0,0,1-.87,1.5l-34.82,20.11A1.89,1.89,0,0,1,121,299.16Z" style="fill:#BA68C8"></path><path d="M105.86,288.08a1.75,1.75,0,0,0-.26.85v.35a1.92,1.92,0,0,0,.87,1.5l7.26,4.19,7.26,4.19a1.71,1.71,0,0,0,.86.21v-2.06Z" style="opacity:0.1"></path><path d="M121.85,297.31v2.06a1.75,1.75,0,0,0,.87-.21l17.41-10.05,17.41-10.06a1.89,1.89,0,0,0,.87-1.5v-.34a1.88,1.88,0,0,0-.25-.86Z" style="opacity:0.15"></path><path d="M114.69,269.73l-14.51-8.38a1.92,1.92,0,0,1-.87-1.5v-.35a1.92,1.92,0,0,1,.87-1.5L135,237.9a1.89,1.89,0,0,1,1.73,0l14.52,8.38a1.89,1.89,0,0,1,.87,1.5v.34a1.91,1.91,0,0,1-.87,1.5l-34.83,20.11A1.92,1.92,0,0,1,114.69,269.73Z" style="fill:#BA68C8"></path><path d="M115.56,267.88v2.06a1.74,1.74,0,0,0,.86-.21l17.42-10.05,17.41-10.06a1.91,1.91,0,0,0,.87-1.5v-.34a1.75,1.75,0,0,0-.26-.86Z" style="opacity:0.15"></path><path d="M99.56,258.65a1.84,1.84,0,0,0-.25.85v.35a1.92,1.92,0,0,0,.87,1.5l14.51,8.38a1.75,1.75,0,0,0,.87.21v-2.06Z" style="opacity:0.1"></path><path d="M108.4,240.3,84.27,226.37a1.91,1.91,0,0,1-.86-1.5v-.34a1.92,1.92,0,0,1,.86-1.5l34.83-20.11a1.89,1.89,0,0,1,1.73,0L145,216.85a1.91,1.91,0,0,1,.86,1.5v.34a1.94,1.94,0,0,1-.86,1.5L110.13,240.3A2,2,0,0,1,108.4,240.3Z" style="fill:#BA68C8"></path><path d="M109.26,238.45v2.05a1.75,1.75,0,0,0,.87-.2l17.41-10.06L145,220.19a1.94,1.94,0,0,0,.86-1.5v-.35a1.73,1.73,0,0,0-.25-.85Z" style="opacity:0.15"></path><path d="M83.66,223.67a1.88,1.88,0,0,0-.25.86v.34a1.91,1.91,0,0,0,.86,1.5L108.4,240.3a1.73,1.73,0,0,0,.86.2v-2.05Z" style="opacity:0.1"></path><path d="M98.55,208.24,54,329.37v0l-.1.27a1.86,1.86,0,0,1-.72.7,4.55,4.55,0,0,1-4.07,0,1.58,1.58,0,0,1-.83-1,1.82,1.82,0,0,1,0-.33,2.73,2.73,0,0,1,.17-.84L93.15,206.26a2.88,2.88,0,1,1,5.4,2Z" style="fill:#37474f"></path><path d="M97.55,186.13a4.46,4.46,0,0,0-1.91,4.3L135.21,375.5a1.74,1.74,0,0,1,.06.45,1.71,1.71,0,0,1,0,.32,1.56,1.56,0,0,1-.83,1,4.47,4.47,0,0,1-4.06,0,1.77,1.77,0,0,1-.79-.83,0,0,0,0,0,0,0l-.05-.24L90,191.64a10.26,10.26,0,0,1,4.66-10.49" style="fill:#455a64"></path></g><g id="freepik--paint-pot--inject-2"><g id="freepik--paint-pot--inject-2"><path d="M108.59,373.06l-36.7-.5-.32,30h0c0,2.72,1.74,5.45,5.3,7.56,7.12,4.21,18.74,4.34,25.95.28,3.64-2.05,5.46-4.77,5.46-7.51Z" style="fill:#37474f"></path><path d="M77.35,365.13c-7.21,4.06-7.28,10.77-.16,15s18.74,4.34,26,.28,7.28-10.77.16-15S84.56,361.07,77.35,365.13Z" style="fill:#455a64"></path><path d="M107,372.94a4.45,4.45,0,0,1-.26,1.43c-.56,1.72-2.06,3.32-4.4,4.64a25.1,25.1,0,0,1-12.22,2.75,24.92,24.92,0,0,1-12.14-3,8.93,8.93,0,0,1-4.25-4.63,4.53,4.53,0,0,1-.26-1.54c0-2.24,1.68-4.4,4.65-6.05a24.53,24.53,0,0,1,12.2-2.76,24.67,24.67,0,0,1,12.16,3C105.44,368.52,107,370.7,107,372.94Z" style="fill:#263238"></path><path d="M106.76,374.37c-.56,1.72-2.06,3.32-4.4,4.64a25.1,25.1,0,0,1-12.22,2.75,24.92,24.92,0,0,1-12.14-3,8.93,8.93,0,0,1-4.25-4.63,8.77,8.77,0,0,1,4.39-4.62,24.75,24.75,0,0,1,12.2-2.77,24.89,24.89,0,0,1,12.16,3A9,9,0,0,1,106.76,374.37Z" style="fill:#BA68C8"></path><path d="M98.07,384.29c.8-.46,1.45-.07,1.44.85A3.21,3.21,0,0,1,98,387.63c-.81.46-1.45.07-1.44-.85A3.19,3.19,0,0,1,98.07,384.29Z" style="fill:#263238"></path><path d="M71.83,377.83c-2,4-6,13.44-.82,17.29.22.16.42.3.64.44l0,1.92c-.52-.32-1.06-.68-1.58-1.06-7.79-5.77,1-20.59,1.38-21.21a.74.74,0,0,1,.44-.34Z" style="fill:#e0e0e0"></path><path d="M98.75,386.34c-.22.46-5.89,11.3-15.22,13.48a13.54,13.54,0,0,1-3.21.38,16.21,16.21,0,0,1-8.69-2.72l0-1.92c3.85,2.68,7.73,3.6,11.52,2.72,8.61-2,14.12-12.58,14.16-12.68a.8.8,0,0,1,1.08-.34A.78.78,0,0,1,98.75,386.34Z" style="fill:#e0e0e0"></path></g></g><g id="freepik--Gear--inject-2"><path d="M174.93,281.05l-3.8-2.19a4.8,4.8,0,0,1-2.16-3.75V101.88a4.78,4.78,0,0,1,2.16-3.75L296.79,25.58a4.79,4.79,0,0,1,4.33,0l3.79,2.19a4.78,4.78,0,0,1,2.17,3.75V204.76a4.78,4.78,0,0,1-2.17,3.75L179.26,281.05A4.79,4.79,0,0,1,174.93,281.05Z" style="fill:#BA68C8"></path><path d="M307.05,31.16c-.15-1.12-1.06-1.53-2.14-.9L179.25,102.81a4.52,4.52,0,0,0-1.53,1.62l-8.12-4.69a4.43,4.43,0,0,1,1.53-1.62L296.78,25.57a4.79,4.79,0,0,1,4.33,0l3.8,2.19A4.85,4.85,0,0,1,307.05,31.16Z" style="fill:#fff;opacity:0.4"></path><path d="M178.75,281.27a4.8,4.8,0,0,1-3.83-.22l-3.79-2.19a4.78,4.78,0,0,1-2.17-3.75V101.87a4.45,4.45,0,0,1,.64-2.13l8.12,4.69a4.43,4.43,0,0,0-.63,2.13V279.8C177.09,281,177.8,281.56,178.75,281.27Z" style="opacity:0.1"></path><path d="M316.89,167.52h0a1,1,0,0,0-1,.1L310.79,171a1.46,1.46,0,0,1-2-.46,11.83,11.83,0,0,0-1-1.21,2.49,2.49,0,0,1-.59-2.4l8-5.1-6-3.46h0a1.68,1.68,0,0,0-.39-.16l-3.82-.85a2.08,2.08,0,0,0-2.16,1l-3.58,6.83a3.72,3.72,0,0,1-2.17,1.63l-.22.07a9.06,9.06,0,0,0,.32-1.59l-6-3.48h0A1,1,0,0,0,290,162l-5.71,4.49a3.2,3.2,0,0,0-1.09,2.42l.34,5.44a4.35,4.35,0,0,1-.89,2.63c-.93,1.12-1.82,2.29-2.65,3.51a3,3,0,0,1-2.32,1.18l-3.68-.18a2.38,2.38,0,0,0-2.11,1.29l-3.45,7.74a1.46,1.46,0,0,0,.59,1.86h0l4.07,2.35a1.79,1.79,0,0,1,.09,1.05,35.33,35.33,0,0,0-.63,3.7,4.71,4.71,0,0,1-1.24,2.51l-5.06,4.65a3.07,3.07,0,0,0-.85,2.49l.95,5.52a1,1,0,0,0,.46.75h0l6,3.48.08-6.91a1.46,1.46,0,0,1,2,.46,10.56,10.56,0,0,0,1,1.21,2.52,2.52,0,0,1,.6,2.4L274,223a1.26,1.26,0,0,0,.5,1.55h0l6,3.48,1.64-4.5,2.33-5.78a3.7,3.7,0,0,1,2.16-1.63,19.58,19.58,0,0,0,2.35-.78,1.3,1.3,0,0,1,1.8.83l1.29,4.27a1.14,1.14,0,0,0,.49.67h0l6.05,3.48-1.06-6.68,1.85-1.46a3.17,3.17,0,0,0,1.08-2.42l-.34-5.44a4.32,4.32,0,0,1,.89-2.63c.94-1.12,2.35-1.72,3.18-2.93.47-.69,1-1.8,1.8-1.76l3.67.18a2.37,2.37,0,0,0,2.11-1.29l3.46-7.75a1.47,1.47,0,0,0-.77-1.95l-3-1.27a1.84,1.84,0,0,1-1-2,35.4,35.4,0,0,0,.64-3.7,4.62,4.62,0,0,1,1.23-2.51l5.07-4.65a3,3,0,0,0,.83-1.73l4.6-3.58Zm-23,35.71c-6.2,4.86-12.12,3.54-13.24-3s3.94-14.77,10.13-19.64,11.17-4.5,12.29,2S300.1,198.36,293.91,203.23Z" style="fill:#263238"></path><path d="M271.3,202l-5,4.6a2.87,2.87,0,0,0-.77,1.44l7.43,4.3v-.4a1.46,1.46,0,0,1,2,.46h0l7.17-4.14Z" style="fill:#455a64"></path><path d="M284.06,188.06a29.74,29.74,0,0,1,1.84-2.54l-7.14-4.12a2.66,2.66,0,0,1-1,.22l-3.68-.18a2.27,2.27,0,0,0-1.52.55l11,6.34Z" style="fill:#455a64"></path><path d="M322.89,171a1,1,0,0,0-1,.12l-5.06,3.33a1.47,1.47,0,0,1-2-.46,9.83,9.83,0,0,0-1-1.21,2.5,2.5,0,0,1-.59-2.41l.48-1.29,2.17-1.43a1,1,0,0,1,1.05-.1h0Z" style="fill:#455a64"></path><path d="M307.94,169.5c-.06-.06-.11-.14-.17-.21a2.49,2.49,0,0,1-.59-2.4l8-5.1-6-3.46h0a1.68,1.68,0,0,0-.39-.16l-3.82-.85a2.08,2.08,0,0,0-2.16,1l-3.58,6.83a3.06,3.06,0,0,1-.82.92l8.1,4.68Z" style="fill:#455a64"></path><path d="M283.39,167.94l7.43,4.29,6.12-5.6a10.2,10.2,0,0,0,.25-1.37l-6-3.48h0A1,1,0,0,0,290,162l-5.71,4.49A3,3,0,0,0,283.39,167.94Z" style="fill:#455a64"></path><path d="M324.32,177.28l-.95-5.52a.91.91,0,0,0-1.51-.66l-5.06,3.33a1.46,1.46,0,0,1-2-.46,9.65,9.65,0,0,0-1-1.2,2.54,2.54,0,0,1-.6-2.41l2.58-7a1.28,1.28,0,0,0-.94-1.74l-3.81-.85a2.07,2.07,0,0,0-2.16,1l-3.59,6.83a3.7,3.7,0,0,1-2.16,1.63,19.58,19.58,0,0,0-2.35.78,1.29,1.29,0,0,1-1.8-.83l-1.29-4.27a1,1,0,0,0-1.62-.51l-5.71,4.49a3.17,3.17,0,0,0-1.08,2.42l.34,5.44a4.35,4.35,0,0,1-.89,2.63c-.94,1.12-1.82,2.29-2.66,3.51a2.94,2.94,0,0,1-2.32,1.18l-3.67-.18A2.37,2.37,0,0,0,278,186.2L274.49,194a1.47,1.47,0,0,0,.77,2l3,1.27a1.84,1.84,0,0,1,1,2,35.4,35.4,0,0,0-.64,3.7,4.59,4.59,0,0,1-1.23,2.51l-5.07,4.65a3.07,3.07,0,0,0-.85,2.49l1,5.53a.91.91,0,0,0,1.51.65l5.06-3.33a1.47,1.47,0,0,1,2,.46,11.83,11.83,0,0,0,1,1.21,2.5,2.5,0,0,1,.59,2.41l-2.58,7a1.28,1.28,0,0,0,.94,1.74l3.82.85a2.08,2.08,0,0,0,2.16-1l3.58-6.83a3.75,3.75,0,0,1,2.17-1.63,18,18,0,0,0,2.35-.78,1.3,1.3,0,0,1,1.8.83l1.29,4.27a1,1,0,0,0,1.61.51l5.71-4.49a3.21,3.21,0,0,0,1.09-2.42l-.34-5.44a4.28,4.28,0,0,1,.89-2.63c.93-1.12,1.82-2.29,2.65-3.51a3,3,0,0,1,2.32-1.18l3.68.18a2.38,2.38,0,0,0,2.11-1.29l3.45-7.74a1.47,1.47,0,0,0-.77-2l-3-1.27a1.82,1.82,0,0,1-1-2,35.33,35.33,0,0,0,.63-3.7,4.64,4.64,0,0,1,1.24-2.5l5.06-4.66A3.07,3.07,0,0,0,324.32,177.28Zm-24.4,29.42c-6.19,4.87-12.12,3.54-13.24-3s3-15.73,9.18-20.6,12.12-3.54,13.24,3S306.11,201.83,299.92,206.7Z" style="fill:#37474f"></path><path d="M288.3,114.07l-5.92-3.41h0a1,1,0,0,0-.92,0l-10.7,4.82a1.28,1.28,0,0,1-1.79-.83,24,24,0,0,0-2.38-5.3,3,3,0,0,1-.16-2.59l7.13-14.38a1.63,1.63,0,0,0-.64-2.1l-7.73-4.46a1.61,1.61,0,0,0-2.13.49L254.16,99.7a3,3,0,0,1-2.33,1.16,21.77,21.77,0,0,0-3.1.14V91.23l-5.94-3.43h0a1,1,0,0,0-1,.09l-12,6.94a3.27,3.27,0,0,0-1.44,2.25l-1.2,13.37a4.43,4.43,0,0,1-1.25,2.5,72.57,72.57,0,0,0-6.68,7.07,2.32,2.32,0,0,1-2.36.67l-7.72-2.7a1.88,1.88,0,0,0-2.16.81l-8.84,15.3a1.89,1.89,0,0,0,.39,2.28l6.19,5.34a2.29,2.29,0,0,1,.6,2.38,71,71,0,0,0-2.78,9.31,4.41,4.41,0,0,1-1.54,2.33l-11,7.73a3.25,3.25,0,0,0-1.23,2.37v13.88a1,1,0,0,0,.43.89h0l5.92,3.42,8.79-4.17a21,21,0,0,0,1.1,2,3,3,0,0,1,.16,2.59l-7.13,14.38a1.61,1.61,0,0,0,.63,2.09l7.74,4.47a1.61,1.61,0,0,0,2.13-.5l8.89-13.36a2.94,2.94,0,0,1,2.32-1.16,24.05,24.05,0,0,0,5.79-.58,1.26,1.26,0,0,1,1.6,1.13l1.18,11.67a1,1,0,0,0,.46.82h0l5.91,3.4,7.1-10.42a3.26,3.26,0,0,0,1.43-2.25l1.2-13.37a2.71,2.71,0,0,1,1.54-2,28.2,28.2,0,0,0,9.34-6.55,2.44,2.44,0,0,1,2.39-.64l4.74,1.67a1.88,1.88,0,0,0,2.17-.8l8.83-15.3a1.89,1.89,0,0,0-.38-2.28L269,151.39a2.47,2.47,0,0,1-.66-2.4,40.36,40.36,0,0,0,1.1-11.09,3.14,3.14,0,0,1,1.15-2.37l11-7.73a3.24,3.24,0,0,0,1.22-2.36l5.25-6.29Zm-52.49,55c-11.22,6.47-18.19,1.88-18.19-11.07s9.27-28.82,20.48-35.29,18-1.77,18,11.18S247,162.61,235.81,169.09Z" style="fill:#263238"></path><path d="M271.19,97.15l2.36-4.75a1.63,1.63,0,0,0-.64-2.1l-7.73-4.46a1.61,1.61,0,0,0-2.13.49L254.16,99.7a2.47,2.47,0,0,1-.59.57l9.95,5.74Z" style="fill:#455a64"></path><path d="M201.86,154.84a3.88,3.88,0,0,1-.85.9l-11,7.73a3,3,0,0,0-.73.83l6.71,3.87,14.57-8.29Z" style="fill:#455a64"></path><path d="M208.53,117.9a1.89,1.89,0,0,0-1.54.9l-8.84,15.3a1.81,1.81,0,0,0-.2,1.12l7.62,4.4,12.1-16.37Z" style="fill:#455a64"></path><path d="M228.6,96.28l9.42,5.44,10.71-6.18V91.23l-5.94-3.43h0a1,1,0,0,0-1,.09l-12,6.94A3.21,3.21,0,0,0,228.6,96.28Z" style="fill:#455a64"></path><path d="M288.72,128.85V115a.89.89,0,0,0-1.36-.89l-10.7,4.83a1.27,1.27,0,0,1-1.78-.83,24.5,24.5,0,0,0-2.39-5.3,3,3,0,0,1-.16-2.59l7.13-14.38a1.63,1.63,0,0,0-.63-2.1l-7.74-4.47a1.62,1.62,0,0,0-2.13.5l-8.89,13.37a2.93,2.93,0,0,1-2.33,1.15,24.51,24.51,0,0,0-5.78.59,1.27,1.27,0,0,1-1.61-1.13L249.18,92a.9.9,0,0,0-1.45-.74l-12,6.94a3.25,3.25,0,0,0-1.44,2.24l-1.2,13.38a4.46,4.46,0,0,1-1.25,2.5,72.57,72.57,0,0,0-6.68,7.07,2.3,2.3,0,0,1-2.36.66l-7.72-2.69a1.88,1.88,0,0,0-2.16.8l-8.84,15.31a1.89,1.89,0,0,0,.39,2.28l6.19,5.33a2.31,2.31,0,0,1,.6,2.39,71,71,0,0,0-2.78,9.31,4.41,4.41,0,0,1-1.54,2.33l-11,7.73a3.25,3.25,0,0,0-1.23,2.37v13.88a.9.9,0,0,0,1.37.88l10.7-4.82a1.27,1.27,0,0,1,1.78.82,23.9,23.9,0,0,0,2.39,5.31,3,3,0,0,1,.16,2.59L204,202.29a1.61,1.61,0,0,0,.63,2.09l7.74,4.47a1.61,1.61,0,0,0,2.13-.5L223.37,195a3,3,0,0,1,2.32-1.16,23.58,23.58,0,0,0,5.79-.59,1.28,1.28,0,0,1,1.61,1.13l1.17,11.68a.9.9,0,0,0,1.45.75l12-7a3.19,3.19,0,0,0,1.43-2.24l1.21-13.38a4.43,4.43,0,0,1,1.25-2.49,72.41,72.41,0,0,0,6.67-7.07,2.3,2.3,0,0,1,2.36-.67l7.72,2.69a1.88,1.88,0,0,0,2.17-.8l8.84-15.31a1.88,1.88,0,0,0-.39-2.27L272.8,153a2.29,2.29,0,0,1-.6-2.38,73.85,73.85,0,0,0,2.78-9.32,4.45,4.45,0,0,1,1.54-2.33l11-7.73A3.24,3.24,0,0,0,288.72,128.85Zm-47,43.65c-11.22,6.47-20.31,1.22-20.31-11.73s9.09-28.7,20.31-35.17S262,124.37,262,137.32,252.93,166,241.72,172.5Z" style="fill:#37474f"></path><path d="M288.3,114.07h0a1,1,0,0,0-.95,0l-10.7,4.82a1.27,1.27,0,0,1-1.78-.82,23.08,23.08,0,0,0-1.53-3.76l8.1-3.65a1,1,0,0,1,.93,0h0Z" style="fill:#455a64"></path></g></svg>