<svg xmlns="http://www.w3.org/2000/svg" viewBox="0 0 500 500"><g id="freepik--background-complete--inject-3"><rect y="382.4" width="500" height="0.25" style="fill:#e0e0e0"></rect><rect x="51.65" y="394.39" width="57.77" height="0.25" style="fill:#e0e0e0"></rect><rect x="209.34" y="388.96" width="26.32" height="0.25" style="fill:#e0e0e0"></rect><rect x="245.28" y="388.83" width="51.28" height="0.25" style="fill:#e0e0e0"></rect><rect x="381.68" y="391.83" width="12.49" height="0.25" style="fill:#e0e0e0"></rect><rect x="288.73" y="391.83" width="49.82" height="0.25" style="fill:#e0e0e0"></rect><rect x="119.1" y="394.39" width="9.9" height="0.25" style="fill:#e0e0e0"></rect><rect x="402.33" y="391.83" width="43.25" height="0.25" style="fill:#e0e0e0"></rect><path d="M237,337.8H43.91a5.71,5.71,0,0,1-5.7-5.71V60.66A5.71,5.71,0,0,1,43.91,55H237a5.71,5.71,0,0,1,5.71,5.71V332.09A5.71,5.71,0,0,1,237,337.8ZM43.91,55.2a5.46,5.46,0,0,0-5.45,5.46V332.09a5.46,5.46,0,0,0,5.45,5.46H237a5.47,5.47,0,0,0,5.46-5.46V60.66A5.47,5.47,0,0,0,237,55.2Z" style="fill:#e0e0e0"></path><path d="M453.31,337.8H260.21a5.72,5.72,0,0,1-5.71-5.71V60.66A5.72,5.72,0,0,1,260.21,55h193.1A5.71,5.71,0,0,1,459,60.66V332.09A5.71,5.71,0,0,1,453.31,337.8ZM260.21,55.2a5.47,5.47,0,0,0-5.46,5.46V332.09a5.47,5.47,0,0,0,5.46,5.46h193.1a5.47,5.47,0,0,0,5.46-5.46V60.66a5.47,5.47,0,0,0-5.46-5.46Z" style="fill:#e0e0e0"></path><path d="M76.62,136.81c-4.36-9.42-.9-16.12,9.75-16.12,6.69,0,15,2.64,23,6.93.92-2.45,3.48-3.91,7.61-3.91,7.27,0,17.3,4.53,25.16,10.93a14.53,14.53,0,0,1,8.19-2.44c7-.29,15.38,2.32,22.71,6.56a4.47,4.47,0,0,1,3.23-1.22c4-.16,9.43,2.47,12.13,5.87.17.22.31.42.46.63H74.5A8.5,8.5,0,0,1,76.62,136.81Z" style="fill:#f5f5f5"></path><path d="M206.32,92a9.28,9.28,0,0,1,1.06-.06c-.33-3.68,1.58-6,5.65-6,2.94,0,6.54,1.23,10.22,3.31-1.05-7.14,2.31-11.79,9.94-11.79,6.15,0,13.93,3,21.62,8,.67-2.8,2.94-4.48,6.75-4.48,6.68,0,16.19,5.18,23.81,12.5,0,0,0,0,0,0a10.93,10.93,0,0,1,7.37-2.8c6.37-.33,14.27,2.65,21.28,7.51a3.47,3.47,0,0,1,2.9-1.4c3.48-.17,8.28,2.5,11.06,6.09H200.72C197.73,97.39,200.11,92.63,206.32,92Z" style="fill:#f5f5f5"></path><path d="M377,76.41c-2.8-6-.57-10.35,6.26-10.35,4.29,0,9.61,1.69,14.79,4.45.58-1.57,2.23-2.52,4.88-2.52,4.67,0,11.1,2.92,16.14,7a9.35,9.35,0,0,1,5.26-1.56c4.46-.19,9.87,1.48,14.57,4.21a2.85,2.85,0,0,1,2.07-.79,10.74,10.74,0,0,1,7.79,3.77l.3.4H373.51C371.12,78.9,373.76,76.51,377,76.41Z" style="fill:#f5f5f5"></path><rect x="89.15" y="273.52" width="34.06" height="108.88" style="fill:#ebebeb"></rect><rect x="112.07" y="235.63" width="55.85" height="146.77" transform="translate(280 618.03) rotate(180)" style="fill:#f5f5f5"></rect><rect x="167.93" y="235.63" width="28.99" height="146.77" style="fill:#ebebeb"></rect><rect x="119.59" y="221.04" width="48.34" height="14.59" transform="translate(287.52 456.67) rotate(180)" style="fill:#f5f5f5"></rect><rect x="119.59" y="232.35" width="48.34" height="3.28" transform="translate(287.52 467.98) rotate(180)" style="fill:#ebebeb"></rect><rect x="167.93" y="221.04" width="21.47" height="14.59" style="fill:#ebebeb"></rect><rect x="127.11" y="206.45" width="40.82" height="14.59" transform="translate(295.03 427.49) rotate(180)" style="fill:#f5f5f5"></rect><rect x="127.11" y="217.76" width="40.82" height="3.28" transform="translate(295.03 438.8) rotate(180)" style="fill:#ebebeb"></rect><rect x="167.93" y="206.45" width="13.96" height="14.59" style="fill:#ebebeb"></rect><rect x="153.14" y="186.07" width="2.71" height="20.39" style="fill:#ebebeb"></rect><rect x="187.66" y="261.15" width="40.79" height="121.25" transform="translate(416.11 643.55) rotate(180)" style="fill:#f5f5f5"></rect><rect x="228.45" y="261.15" width="21.17" height="121.25" style="fill:#ebebeb"></rect><polygon points="239.03 295.79 269.96 322.31 269.96 382.4 239.03 382.4 239.03 295.79" style="fill:#f5f5f5"></polygon><rect x="269.97" y="322.3" width="16.05" height="60.09" style="fill:#ebebeb"></rect><polygon points="286.02 322.31 269.96 322.31 239.03 295.79 255.09 295.79 286.02 322.31" style="fill:#ebebeb"></polygon><path d="M431,382.4a14.68,14.68,0,0,1,8.71-10.93,18.39,18.39,0,0,0-2.56,10.93Z" style="fill:#ebebeb"></path><path d="M142.53,382.4a14.68,14.68,0,0,0-8.71-10.93,18.39,18.39,0,0,1,2.56,10.93Z" style="fill:#ebebeb"></path><path d="M71.11,382.4s-.49-12.8-5.84-16.52C67.46,371.11,67,382.4,67,382.4Z" style="fill:#ebebeb"></path><path d="M69.1,382.4s.49-7.35,5.84-9.48c-2.19,3-1.71,9.48-1.71,9.48Z" style="fill:#ebebeb"></path><path d="M147.11,382.4s-.54-12.12-10.24-16.52c4.34,6.22,4.09,16.52,4.09,16.52Z" style="fill:#ebebeb"></path><path d="M386.29,366H361.78a1,1,0,0,1-1-1V340.52a1,1,0,0,1,1-1h24.51a1,1,0,0,1,1,1V365A1,1,0,0,1,386.29,366Zm-23.51-2h22.51V341.52H362.78Z" style="fill:#e0e0e0"></path><path d="M386.29,341.52H361.78a1,1,0,0,1-1-1V316a1,1,0,0,1,1-1h24.51a1,1,0,0,1,1,1v24.52A1,1,0,0,1,386.29,341.52Zm-23.51-2h22.51V317H362.78Z" style="fill:#e0e0e0"></path><path d="M386.29,366a1,1,0,0,1-.7-.3l-24.52-24.51a1,1,0,1,1,1.42-1.42L387,364.33a1,1,0,0,1,0,1.41A1,1,0,0,1,386.29,366Z" style="fill:#e0e0e0"></path><path d="M386.29,341.52a1,1,0,0,1-.7-.29l-24.52-24.52a1,1,0,0,1,0-1.41,1,1,0,0,1,1.42,0L387,339.81a1,1,0,0,1-.71,1.71Z" style="fill:#e0e0e0"></path><path d="M386.29,317H361.78a1,1,0,0,1-1-1V291.49a1,1,0,0,1,1-1h24.51a1,1,0,0,1,1,1V316A1,1,0,0,1,386.29,317Zm-23.51-2h22.51V292.49H362.78Z" style="fill:#e0e0e0"></path><path d="M386.29,292.49H361.78a1,1,0,0,1-1-1V267a1,1,0,0,1,1-1h24.51a1,1,0,0,1,1,1v24.52A1,1,0,0,1,386.29,292.49Zm-23.51-2h22.51V268H362.78Z" style="fill:#e0e0e0"></path><path d="M386.29,317a1,1,0,0,1-.7-.29l-24.52-24.52a1,1,0,0,1,0-1.41,1,1,0,0,1,1.42,0L387,315.3a1,1,0,0,1,0,1.41A1,1,0,0,1,386.29,317Z" style="fill:#e0e0e0"></path><path d="M386.29,292.49a1,1,0,0,1-.7-.3l-24.52-24.51a1,1,0,0,1,1.42-1.42L387,290.78a1,1,0,0,1,0,1.41A1,1,0,0,1,386.29,292.49Z" style="fill:#e0e0e0"></path><path d="M386.29,268H361.78a1,1,0,0,1-1-1V242.45a1,1,0,0,1,1-1h24.51a1,1,0,0,1,1,1V267A1,1,0,0,1,386.29,268Zm-23.51-2h22.51V243.45H362.78Z" style="fill:#e0e0e0"></path><path d="M386.29,243.45H361.78a1,1,0,0,1-1-1V217.94a1,1,0,0,1,1-1h24.51a1,1,0,0,1,1,1v24.51A1,1,0,0,1,386.29,243.45Zm-23.51-2h22.51V218.94H362.78Z" style="fill:#e0e0e0"></path><path d="M386.29,268a1,1,0,0,1-.7-.29l-24.52-24.52a1,1,0,0,1,0-1.41,1,1,0,0,1,1.42,0L387,266.26a1,1,0,0,1-.71,1.71Z" style="fill:#e0e0e0"></path><path d="M361.78,161.55H337.26a1,1,0,0,1-1-1V136a1,1,0,0,1,1-1h24.52a1,1,0,0,1,1,1v24.51A1,1,0,0,1,361.78,161.55Zm-23.52-2h22.52V137H338.26Z" style="fill:#e0e0e0"></path><path d="M386.29,161.55H361.78a1,1,0,0,1,0-2h23.51v-48a1,1,0,1,1,2,0v49A1,1,0,0,1,386.29,161.55Z" style="fill:#e0e0e0"></path><path d="M361.78,161.55a1,1,0,0,1-.9-1.45l24.52-49a1,1,0,0,1,1.34-.44,1,1,0,0,1,.45,1.34l-24.52,49A1,1,0,0,1,361.78,161.55Z" style="fill:#e0e0e0"></path><path d="M337.26,161.55H312.75a1,1,0,0,1-1-1V136a1,1,0,0,1,1-1h24.51a1,1,0,0,1,1,1v24.51A1,1,0,0,1,337.26,161.55Zm-23.51-2h22.51V137H313.75Z" style="fill:#e0e0e0"></path><path d="M337.26,161.55a1,1,0,0,1-.7-1.7l24.51-24.52a1,1,0,0,1,1.42,0,1,1,0,0,1,0,1.41L338,161.26A1,1,0,0,1,337.26,161.55Z" style="fill:#e0e0e0"></path><path d="M410.81,161.55H386.29a1,1,0,0,1-1-1V136a1,1,0,0,1,1-1h24.52a1,1,0,0,1,1,1v24.51A1,1,0,0,1,410.81,161.55Zm-23.52-2h22.52V137H387.29Z" style="fill:#e0e0e0"></path><path d="M386.29,161.55a1,1,0,0,1-.7-1.7l24.51-24.52a1,1,0,0,1,1.42,0,1,1,0,0,1,0,1.41L387,161.26A1,1,0,0,1,386.29,161.55Z" style="fill:#e0e0e0"></path><path d="M239.2,161.55a1,1,0,0,1-.71-.29,1,1,0,0,1,0-1.41L263,135.33a.91.91,0,0,1,.51-.27L386.1,110.54a1,1,0,0,1,.9.27l49,49a1,1,0,1,1-1.41,1.41L386,112.61,264.21,137l-24.31,24.3A1,1,0,0,1,239.2,161.55Z" style="fill:#e0e0e0"></path><path d="M312.75,161.55a1,1,0,0,1-.71-.29,1,1,0,0,1,0-1.41l24.52-24.52a1,1,0,0,1,1.41,1.41l-24.52,24.52A1,1,0,0,1,312.75,161.55Z" style="fill:#e0e0e0"></path><path d="M312.75,161.55H288.23a1,1,0,0,1-1-1V136a1,1,0,0,1,1-1h24.52a1,1,0,0,1,1,1v24.51A1,1,0,0,1,312.75,161.55Zm-23.52-2h22.52V137H289.23Z" style="fill:#e0e0e0"></path><path d="M288.23,161.55H263.71a1,1,0,0,1-1-1V136a1,1,0,0,1,1-1h24.52a1,1,0,0,1,1,1v24.51A1,1,0,0,1,288.23,161.55Zm-23.52-2h22.52V137H264.71Z" style="fill:#e0e0e0"></path><path d="M288.23,161.55a1,1,0,0,1-.71-.29,1,1,0,0,1,0-1.41L312,135.33a1,1,0,0,1,1.41,1.41l-24.51,24.52A1,1,0,0,1,288.23,161.55Z" style="fill:#e0e0e0"></path><path d="M263.71,161.55a1,1,0,0,1-.7-1.7l24.51-24.52a1,1,0,0,1,1.42,0,1,1,0,0,1,0,1.41l-24.52,24.52A1,1,0,0,1,263.71,161.55Z" style="fill:#e0e0e0"></path><path d="M263.71,161.55H239.2a1,1,0,0,1,0-2h23.51V136a1,1,0,0,1,2,0v24.51A1,1,0,0,1,263.71,161.55Z" style="fill:#e0e0e0"></path><path d="M386.29,243.45a1,1,0,0,1-.7-.29l-24.52-24.51a1,1,0,1,1,1.42-1.42L387,241.75a1,1,0,0,1,0,1.41A1,1,0,0,1,386.29,243.45Z" style="fill:#e0e0e0"></path><path d="M386.29,218.94H361.78a1,1,0,0,1-1-1V193.42a1,1,0,0,1,1-1h24.51a1,1,0,0,1,1,1v24.52A1,1,0,0,1,386.29,218.94Zm-23.51-2h22.51V194.42H362.78Z" style="fill:#e0e0e0"></path><path d="M386.29,194.42H361.78a1,1,0,0,1-1-1V168.91a1,1,0,0,1,1-1h24.51a1,1,0,0,1,1,1v24.51A1,1,0,0,1,386.29,194.42Zm-23.51-2h22.51V169.91H362.78Z" style="fill:#e0e0e0"></path><path d="M386.29,218.94a1,1,0,0,1-.7-.29l-24.52-24.52a1,1,0,1,1,1.42-1.42L387,217.23a1,1,0,0,1-.71,1.71Z" style="fill:#e0e0e0"></path><path d="M386.29,194.42a1,1,0,0,1-.7-.29l-24.52-24.52a1,1,0,0,1,0-1.41,1,1,0,0,1,1.42,0L387,192.71a1,1,0,0,1-.71,1.71Z" style="fill:#e0e0e0"></path><polygon points="435.33 160.55 239.2 160.55 263.71 168.91 435.33 168.91 435.33 160.55" style="fill:#e0e0e0"></polygon><path d="M435.33,169.91H263.71a.91.91,0,0,1-.32-.06l-24.52-8.35a1,1,0,0,1,.33-1.95H435.33a1,1,0,0,1,1,1v8.36A1,1,0,0,1,435.33,169.91Zm-171.45-2H434.33v-6.36H245.23Z" style="fill:#e0e0e0"></path><rect x="343.63" y="164.73" width="18.15" height="38.57" transform="translate(705.41 368.03) rotate(180)" style="fill:#e0e0e0"></rect><rect x="335.18" y="164.73" width="8.44" height="38.57" style="fill:#f5f5f5"></rect><rect x="364.48" y="365.04" width="35.74" height="17.36" transform="translate(764.7 747.43) rotate(180)" style="fill:#e0e0e0"></rect><rect x="347.85" y="365.04" width="16.63" height="17.36" style="fill:#f5f5f5"></rect><path d="M410.81,203.64a1,1,0,0,1-1-1V164.73a1,1,0,1,1,2,0v37.91A1,1,0,0,1,410.81,203.64Z" style="fill:#e0e0e0"></path><path d="M410.81,208.24a3.3,3.3,0,1,1,3.3-3.3A3.3,3.3,0,0,1,410.81,208.24Zm0-4.6a1.3,1.3,0,1,0,1.3,1.3A1.3,1.3,0,0,0,410.81,203.64Z" style="fill:#e0e0e0"></path><path d="M266.79,223.54a1,1,0,0,1-1-1V164.73a1,1,0,1,1,2,0v57.81A1,1,0,0,1,266.79,223.54Z" style="fill:#e0e0e0"></path><path d="M276.18,229.53a1,1,0,0,1-1-.83c-.74-1.16-7.25-5-8.44-5.16-1.12.15-7.63,4-8.37,5.16a1,1,0,0,1-2-.17c0-2.25,9.07-7,10.38-7s10.39,4.74,10.39,7A1,1,0,0,1,276.18,229.53Z" style="fill:#e0e0e0"></path><path d="M287,301.81l14.67-14.67-3.13-6h0c.27-.6.52-1.2.75-1.82h0l6.43-2V256.6l-6.43-2h0c-.24-.61-.48-1.22-.75-1.82l3.12-6L287,232.14l-6,3.12h0c-.6-.27-1.2-.52-1.81-.75l-2-6.43H256.42l-2,6.43c-.61.23-1.21.48-1.81.75h0l-6-3.12L232,246.8l3.13,6c-.28.6-.52,1.21-.76,1.82l-6.43,2v20.74l6.43,2h0c.24.62.48,1.22.75,1.82h0l-3.12,6,14.67,14.67,6-3.13c.6.27,1.21.52,1.82.75h0l2,6.43h20.75l2-6.43c.61-.23,1.21-.48,1.81-.75Zm-9.25-23.93a15.44,15.44,0,1,1,0-21.83A15.42,15.42,0,0,1,277.71,277.88Z" style="fill:#e0e0e0"></path></g><g id="freepik--Shadow--inject-3"><ellipse cx="250" cy="416.24" rx="193.89" ry="11.32" style="fill:#f5f5f5"></ellipse></g><g id="freepik--Gear--inject-3"><path d="M175.89,163.15H163.41a3.27,3.27,0,0,0-2.82,1.62l-6.24,10.81a3.27,3.27,0,0,0,0,3.26l6.24,10.8a3.25,3.25,0,0,0,2.82,1.63h12.48a3.25,3.25,0,0,0,2.82-1.63l6.24-10.8a3.27,3.27,0,0,0,0-3.26l-6.24-10.81A3.27,3.27,0,0,0,175.89,163.15Z" style="fill:#521187"></path><path d="M175.89,163.15H163.41a3.27,3.27,0,0,0-2.82,1.62l-6.24,10.81a3.27,3.27,0,0,0,0,3.26l6.24,10.8a3.25,3.25,0,0,0,2.82,1.63h12.48a3.25,3.25,0,0,0,2.82-1.63l6.24-10.8a3.27,3.27,0,0,0,0-3.26l-6.24-10.81A3.27,3.27,0,0,0,175.89,163.15Z" style="fill:#fff;opacity:0.5"></path><path d="M96,127.33l-.71-.71,6-6,.71.71ZM106.33,117l-.71-.71,12.54-12.54.71.7Z" style="fill:#521187"></path><path d="M96,127.33l-.71-.71,6-6,.71.71ZM106.33,117l-.71-.71,12.54-12.54.71.7Z" style="fill:#fff;opacity:0.5"></path><path d="M254.5,199.84V154.58l-14-4.39h0c-.5-1.34-1.05-2.66-1.63-4h0l6.81-13-32-32-13,6.82h0c-1.31-.59-2.62-1.14-4-1.65l-4.39-14H147l-4.38,14h0c-1.35.51-2.66,1.06-4,1.65l-13-6.82-32,32,6.82,13c-.59,1.31-1.14,2.62-1.64,4h0l-14,4.39v45.26l14,4.38c.51,1.34,1.06,2.66,1.64,4l-6.82,13,32,32,13-6.82h0c1.3.59,2.61,1.14,4,1.65h0l4.38,14h45.26l4.39-14c1.34-.51,2.65-1.06,4-1.65h0l13,6.82,32-32-6.82-13c.58-1.3,1.14-2.62,1.64-4ZM203.33,177.2a33.68,33.68,0,1,1-33.68-33.68A33.69,33.69,0,0,1,203.33,177.2Z" style="fill:#521187"></path><path d="M254.5,199.84V154.58l-14-4.39h0c-.5-1.34-1.05-2.66-1.63-4h0l6.81-13-32-32-13,6.82h0c-1.31-.59-2.62-1.14-4-1.65l-4.39-14H147l-4.38,14h0c-1.35.51-2.66,1.06-4,1.65l-13-6.82-32,32,6.82,13c-.59,1.31-1.14,2.62-1.64,4h0l-14,4.39v45.26l14,4.38c.51,1.34,1.06,2.66,1.64,4l-6.82,13,32,32,13-6.82h0c1.3.59,2.61,1.14,4,1.65h0l4.38,14h45.26l4.39-14c1.34-.51,2.65-1.06,4-1.65h0l13,6.82,32-32-6.82-13c.58-1.3,1.14-2.62,1.64-4ZM203.33,177.2a33.68,33.68,0,1,1-33.68-33.68A33.69,33.69,0,0,1,203.33,177.2Z" style="fill:#fff;opacity:0.5"></path><path d="M190.08,259.31H149.23a.25.25,0,0,1-.24-.18l-4-12.62a.25.25,0,0,1,.48-.15l3.89,12.45h40.48L194,245.67a.26.26,0,0,1,.15-.16l1.37-.51c1.16-.44,2.39-.95,3.78-1.57l1.33-.6a.25.25,0,0,1,.2.46l-1.33.59c-1.39.63-2.64,1.14-3.8,1.58l-1.26.48-4.12,13.19A.26.26,0,0,1,190.08,259.31Zm23-9.53a.29.29,0,0,1-.18-.07.25.25,0,0,1,0-.36l28.76-28.75-6.39-12.2a.24.24,0,0,1,0-.22l.6-1.33c.6-1.35,1.11-2.59,1.56-3.77l.51-1.37a.26.26,0,0,1,.16-.15l13.15-4.11V157l-13-4.06a.25.25,0,1,1,.15-.47l13.14,4.1a.26.26,0,0,1,.17.24v40.85a.25.25,0,0,1-.17.24L238.37,202l-.47,1.26c-.45,1.19-1,2.43-1.58,3.8l-.54,1.22,6.41,12.25a.24.24,0,0,1,0,.29l-28.88,28.89A.31.31,0,0,1,213.09,249.78Zm-86.87,0a.29.29,0,0,1-.18-.07L97.15,220.82a.26.26,0,0,1,0-.29l6.47-12.36a.26.26,0,0,1,.34-.11.25.25,0,0,1,.1.34l-6.38,12.2,28.75,28.75a.25.25,0,0,1,0,.36A.28.28,0,0,1,126.22,249.78Zm17-4.49-.09,0c-1-.39-2.09-.85-3.3-1.39a.25.25,0,1,1,.2-.45c1.2.53,2.27,1,3.28,1.37a.25.25,0,0,1,.14.33A.24.24,0,0,1,143.19,245.29Zm26.46-31.14a37,37,0,0,1-36.93-37,.25.25,0,0,1,.5,0,36.43,36.43,0,1,0,36.43-36.43.25.25,0,0,1,0-.5,36.94,36.94,0,0,1,0,73.88Zm-68-10.73a.27.27,0,0,1-.24-.17l-.47-1.25-13.21-4.13a.25.25,0,0,1-.17-.24V156.78a.26.26,0,0,1,.17-.24l12.63-3.94a.26.26,0,0,1,.32.16.27.27,0,0,1-.17.32L88.05,157v40.48l13.15,4.11a.23.23,0,0,1,.15.15l.52,1.37a.25.25,0,0,1-.14.32Zm0-52h-.09a.26.26,0,0,1-.14-.33c.48-1.28,1-2.5,1.55-3.74a.25.25,0,0,1,.33-.12.25.25,0,0,1,.13.33c-.56,1.22-1.06,2.44-1.54,3.71A.26.26,0,0,1,101.65,151.45Zm134.19-5.71-.12,0a.25.25,0,0,1-.1-.34l6-11.55L236.84,129a.25.25,0,1,1,.35-.35l5,5a.24.24,0,0,1,0,.29l-6.13,11.71A.25.25,0,0,1,235.84,145.74ZM97.33,134a.26.26,0,0,1-.18-.07.26.26,0,0,1,0-.35L126,104.71a.23.23,0,0,1,.29,0l12.25,6.41,1.22-.54c1.18-.53,2.26-1,3.3-1.39a.25.25,0,0,1,.33.14.25.25,0,0,1-.15.32c-1,.41-2.1.86-3.27,1.38l-1.33.6a.28.28,0,0,1-.22,0l-12.2-6.39L97.51,134A.24.24,0,0,1,97.33,134Zm135.52-9.12a.26.26,0,0,1-.18-.07L213,105.19l-12.2,6.39a.22.22,0,0,1-.21,0l-1.33-.6c-1.37-.61-2.61-1.12-3.78-1.57l-1.37-.51a.26.26,0,0,1-.15-.16l-4.11-13.14H149.41l-3.54,11.31a.24.24,0,0,1-.31.16.25.25,0,0,1-.16-.31L149,95.28a.25.25,0,0,1,.24-.17h40.85a.26.26,0,0,1,.24.17l4.12,13.2,1.26.48c1.18.44,2.42,1,3.8,1.58l1.22.54L213,104.67a.24.24,0,0,1,.29,0L233,124.47a.25.25,0,0,1,0,.36A.26.26,0,0,1,232.85,124.9Z" style="fill:#fafafa"></path></g></svg>